<svg width="264" height="268" viewBox="0 0 264 268" fill="none" xmlns="http://www.w3.org/2000/svg">
<path d="M80.4 214.4C65.66 214.4 53.734 226.46 53.734 241.2C53.734 255.94 65.66 268 80.4 268C95.14 268 107.2 255.94 107.2 241.2C107.2 226.46 95.14 214.4 80.4 214.4ZM214.4 214.4C199.66 214.4 187.734 226.46 187.734 241.2C187.734 255.94 199.66 268 214.4 268C229.14 268 241.2 255.94 241.2 241.2C241.2 226.46 229.14 214.4 214.4 214.4ZM241.2 187.6C241.2 180.23 235.17 174.2 227.8 174.2H80.4L95.14 147.4H194.97C205.02 147.4 213.864 141.906 218.42 133.598L261.836 51.322C263.473 48.2236 263.829 44.6063 262.827 41.2482C261.824 37.8902 259.544 35.0598 256.476 33.366C254.922 32.5149 253.214 31.9817 251.452 31.7976C249.69 31.6134 247.909 31.7819 246.212 32.2933C244.516 32.8047 242.939 33.6487 241.572 34.7762C240.205 35.9036 239.077 37.2919 238.252 38.86L194.97 120.6H100.902L47.436 7.63802C46.359 5.35072 44.6528 3.41756 42.5169 2.06487C40.3811 0.712176 37.9041 -0.00405833 35.376 1.72973e-05H13.4C6.03 1.72973e-05 0 6.03002 0 13.4C0 20.77 6.03 26.8 13.4 26.8H26.8L75.04 128.506L56.95 161.202C47.168 179.158 60.032 201 80.4 201H227.8C235.17 201 241.2 194.97 241.2 187.6ZM137.886 9.51402C139.126 8.27179 140.598 7.28625 142.219 6.61382C143.84 5.94139 145.578 5.59527 147.333 5.59527C149.088 5.59527 150.826 5.94139 152.447 6.61382C154.068 7.28625 155.54 8.27179 156.78 9.51402L191.486 44.22C196.712 49.446 196.712 57.888 191.486 63.114L156.78 97.82C155.539 99.0606 154.067 100.045 152.446 100.716C150.825 101.388 149.087 101.733 147.333 101.733C145.578 101.733 143.841 101.388 142.22 100.716C140.599 100.045 139.127 99.0606 137.886 97.82C136.645 96.5794 135.661 95.1066 134.99 93.4857C134.318 91.8648 133.973 90.1275 133.973 88.373C133.973 86.6185 134.318 84.8813 134.99 83.2603C135.661 81.6394 136.645 80.1666 137.886 78.926L149.678 67H107.2C99.83 67 93.8 60.97 93.8 53.6C93.8 46.23 99.83 40.2 107.2 40.2H149.678L137.886 28.408C136.644 27.1683 135.658 25.6958 134.986 24.0748C134.313 22.4537 133.967 20.716 133.967 18.961C133.967 17.206 134.313 15.4683 134.986 13.8473C135.658 12.2262 136.644 10.7537 137.886 9.51402Z" fill="black"/>
</svg>
