<svg width="253" height="277" viewBox="0 0 253 277" fill="none" xmlns="http://www.w3.org/2000/svg">
<path d="M31.625 245.343H79.0625V150.371H173.937V245.343H221.375V102.886L126.5 31.6571L31.625 102.886V245.343ZM31.625 277C22.9281 277 15.4805 273.898 9.28196 267.693C3.08346 261.488 -0.0105148 254.038 2.68464e-05 245.343V102.886C2.68464e-05 97.8733 1.12271 93.1248 3.36809 88.64C5.61346 84.1552 8.70744 80.4619 12.65 77.56L107.525 6.33143C110.424 4.22095 113.455 2.63809 116.617 1.58286C119.78 0.527617 123.074 0 126.5 0C129.926 0 133.22 0.527617 136.383 1.58286C139.545 2.63809 142.576 4.22095 145.475 6.33143L240.35 77.56C244.303 80.4619 247.402 84.1552 249.648 88.64C251.893 93.1248 253.01 97.8733 253 102.886V245.343C253 254.049 249.901 261.504 243.702 267.709C237.504 273.913 230.061 277.011 221.375 277H142.312V182.029H110.687V277H31.625Z" fill="#FFFFFF"/>
</svg>
