<svg width="277" height="277" viewBox="0 0 277 277" fill="none" xmlns="http://www.w3.org/2000/svg">
<path d="M80.33 0H196.67C240.99 0 277 36.01 277 80.33V196.67C277 217.975 268.537 238.407 253.472 253.472C238.407 268.537 217.975 277 196.67 277H80.33C36.01 277 0 240.99 0 196.67V80.33C0 59.0252 8.46332 38.5929 23.5281 23.5281C38.5929 8.46332 59.0252 0 80.33 0ZM77.56 27.7C64.3363 27.7 51.6542 32.9531 42.3037 42.3037C32.9531 51.6542 27.7 64.3363 27.7 77.56V199.44C27.7 227.001 49.9985 249.3 77.56 249.3H199.44C212.664 249.3 225.346 244.047 234.696 234.696C244.047 225.346 249.3 212.664 249.3 199.44V77.56C249.3 49.9985 227.001 27.7 199.44 27.7H77.56ZM211.213 48.475C215.804 48.475 220.208 50.299 223.454 53.5457C226.701 56.7924 228.525 61.1959 228.525 65.7875C228.525 70.3791 226.701 74.7826 223.454 78.0293C220.208 81.276 215.804 83.1 211.213 83.1C206.621 83.1 202.217 81.276 198.971 78.0293C195.724 74.7826 193.9 70.3791 193.9 65.7875C193.9 61.1959 195.724 56.7924 198.971 53.5457C202.217 50.299 206.621 48.475 211.213 48.475ZM138.5 69.25C156.866 69.25 174.48 76.546 187.467 89.5329C200.454 102.52 207.75 120.134 207.75 138.5C207.75 156.866 200.454 174.48 187.467 187.467C174.48 200.454 156.866 207.75 138.5 207.75C120.134 207.75 102.52 200.454 89.5329 187.467C76.546 174.48 69.25 156.866 69.25 138.5C69.25 120.134 76.546 102.52 89.5329 89.5329C102.52 76.546 120.134 69.25 138.5 69.25ZM138.5 96.95C127.48 96.95 116.912 101.328 109.12 109.12C101.328 116.912 96.95 127.48 96.95 138.5C96.95 149.52 101.328 160.088 109.12 167.88C116.912 175.672 127.48 180.05 138.5 180.05C149.52 180.05 160.088 175.672 167.88 167.88C175.672 160.088 180.05 149.52 180.05 138.5C180.05 127.48 175.672 116.912 167.88 109.12C160.088 101.328 149.52 96.95 138.5 96.95Z" fill="white"/>
</svg>
