<svg width="277" height="277" viewBox="0 0 277 277" fill="none" xmlns="http://www.w3.org/2000/svg">
<path d="M138.5 0C111.107 0 84.3298 8.12288 61.5536 23.3415C38.7774 38.56 21.0255 60.1908 10.5427 85.4983C0.0600099 110.806 -2.68275 138.654 2.6613 165.52C8.00535 192.386 21.1962 217.065 40.5658 236.434C59.9353 255.804 84.6137 268.995 111.48 274.339C138.346 279.683 166.194 276.94 191.502 266.457C216.809 255.975 238.44 238.223 253.659 215.446C268.877 192.67 277 165.893 277 138.5C276.961 101.779 262.357 66.5739 236.391 40.6085C210.426 14.6431 175.221 0.0387776 138.5 0ZM138.5 255.692C115.322 255.692 92.6637 248.819 73.3915 235.942C54.1193 223.065 39.0985 204.762 30.2285 183.348C21.3585 161.933 19.0377 138.37 23.5596 115.637C28.0815 92.9038 39.2429 72.0221 55.6326 55.6325C72.0222 39.2429 92.9039 28.0814 115.637 23.5595C138.37 19.0376 161.934 21.3584 183.348 30.2284C204.762 39.0984 223.065 54.1193 235.942 73.3914C248.819 92.6636 255.692 115.322 255.692 138.5C255.657 169.57 243.299 199.358 221.329 221.329C199.358 243.299 169.571 255.657 138.5 255.692ZM191.769 165.135C191.769 175.024 187.841 184.509 180.848 191.502C173.855 198.494 164.37 202.423 154.481 202.423H149.154V213.077C149.154 215.902 148.031 218.612 146.033 220.61C144.035 222.608 141.326 223.731 138.5 223.731C135.674 223.731 132.965 222.608 130.967 220.61C128.969 218.612 127.846 215.902 127.846 213.077V202.423H106.538C103.713 202.423 101.003 201.301 99.0051 199.303C97.0071 197.305 95.8847 194.595 95.8847 191.769C95.8847 188.944 97.0071 186.234 99.0051 184.236C101.003 182.238 103.713 181.115 106.538 181.115H154.481C158.719 181.115 162.784 179.432 165.781 176.435C168.778 173.438 170.462 169.373 170.462 165.135C170.462 160.896 168.778 156.831 165.781 153.834C162.784 150.838 158.719 149.154 154.481 149.154H122.519C112.63 149.154 103.145 145.225 96.1524 138.232C89.1594 131.239 85.2308 121.755 85.2308 111.865C85.2308 101.976 89.1594 92.4914 96.1524 85.4984C103.145 78.5055 112.63 74.5769 122.519 74.5769H127.846V63.9231C127.846 61.0975 128.969 58.3876 130.967 56.3897C132.965 54.3917 135.674 53.2692 138.5 53.2692C141.326 53.2692 144.035 54.3917 146.033 56.3897C148.031 58.3876 149.154 61.0975 149.154 63.9231V74.5769H170.462C173.287 74.5769 175.997 75.6994 177.995 77.6973C179.993 79.6953 181.115 82.4052 181.115 85.2308C181.115 88.0563 179.993 90.7662 177.995 92.7642C175.997 94.7621 173.287 95.8846 170.462 95.8846H122.519C118.281 95.8846 114.216 97.5683 111.219 100.565C108.222 103.562 106.538 107.627 106.538 111.865C106.538 116.104 108.222 120.168 111.219 123.165C114.216 126.162 118.281 127.846 122.519 127.846H154.481C164.37 127.846 173.855 131.775 180.848 138.768C187.841 145.761 191.769 155.245 191.769 165.135Z" fill="white"/>
</svg>
