<svg width="277" height="277" viewBox="0 0 277 277" fill="none" xmlns="http://www.w3.org/2000/svg">
<path d="M138.5 0C62.048 0 0 62.048 0 138.5C0 214.952 62.048 277 138.5 277C214.952 277 277 214.952 277 138.5C277 62.048 214.952 0 138.5 0ZM202.764 94.18C200.686 116.063 191.684 169.247 187.114 193.762C185.175 204.149 181.297 207.612 177.696 208.027C169.663 208.72 163.569 202.764 155.812 197.64C143.624 189.607 136.7 184.621 124.927 176.865C111.216 167.862 120.079 162.876 127.974 154.843C130.051 152.766 165.508 120.495 166.2 117.587C166.296 117.146 166.283 116.689 166.163 116.254C166.042 115.82 165.817 115.421 165.508 115.094C164.676 114.401 163.568 114.678 162.599 114.817C161.353 115.094 141.963 127.974 104.152 153.458C98.612 157.198 93.626 159.137 89.194 158.998C84.208 158.859 74.79 156.228 67.7265 153.874C59.001 151.104 52.2145 149.58 52.7685 144.732C53.0455 142.24 56.508 139.747 63.0175 137.115C103.46 119.525 130.329 107.892 143.763 102.352C182.266 86.2855 190.161 83.5155 195.424 83.5155C196.532 83.5155 199.163 83.7925 200.825 85.1775C202.21 86.2855 202.626 87.809 202.764 88.917C202.626 89.748 202.902 92.241 202.764 94.18Z" fill="white"/>
</svg>
