<svg width="153" height="277" viewBox="0 0 153 277" fill="none" xmlns="http://www.w3.org/2000/svg">
<path d="M73.2585 189.526C67.4269 189.526 62.509 187.461 58.5046 183.33C54.5003 179.2 52.7362 174.34 53.2125 168.751C53.9414 158.546 56.3712 149.677 60.5019 142.145C64.6326 134.612 71.1932 126.837 80.1835 118.818C90.1458 110.071 97.7414 102.475 102.97 96.0315C108.199 89.5876 110.809 82.2398 110.799 73.9882C110.799 64.0259 107.461 55.7645 100.784 49.2039C94.1064 42.6434 84.8099 39.3632 72.894 39.3632C65.1186 39.3632 58.4949 41.0057 53.0229 44.2908C47.551 47.576 43.119 51.6435 39.7269 56.4934C36.3252 61.3531 32.1362 64.6333 27.1599 66.3342C22.1836 68.0351 17.3823 67.9136 12.7559 65.9697C7.1673 63.5399 3.34275 59.5307 1.28226 53.9421C-0.77823 48.3535 -0.355436 43.1294 2.55063 38.2697C9.59712 27.3355 19.0734 18.2237 30.9796 10.9342C42.8857 3.64474 56.8572 0 72.894 0C98.4072 0 118.03 7.10481 131.764 21.3144C145.497 35.524 152.359 52.596 152.349 72.5303C152.349 84.6794 149.74 95.0693 144.52 103.7C139.301 112.331 131.098 122.108 119.911 133.033C111.65 140.808 105.818 147.126 102.416 151.986C99.0146 156.845 96.7063 162.434 95.4914 168.751C94.5195 174.826 91.9682 179.807 87.8375 183.695C83.7068 187.582 78.8471 189.526 73.2585 189.526ZM72.894 277C64.8756 277 58.0089 274.143 52.294 268.428C46.579 262.713 43.7264 255.851 43.7362 247.842C43.7362 239.824 46.5936 232.957 52.3086 227.242C58.0235 221.527 64.8853 218.674 72.894 218.684C80.9125 218.684 87.7791 221.542 93.4941 227.257C99.209 232.972 102.062 239.833 102.052 247.842C102.052 255.861 99.1945 262.727 93.4795 268.442C87.7646 274.157 80.9027 277.01 72.894 277Z" fill="white"/>
</svg>
