<svg width="299" height="285" viewBox="0 0 299 285" fill="none" xmlns="http://www.w3.org/2000/svg">
<path d="M226.119 112.909C234.411 104.617 234.411 91.2875 234.411 64.6004C234.411 37.9133 234.411 24.5839 226.119 16.292M226.119 112.909C217.827 121.201 204.497 121.201 177.81 121.201H121.21C94.5227 121.201 81.1933 121.201 72.9013 112.909M226.119 16.292C217.827 8 204.497 8 177.81 8H121.21C94.5227 8 81.1933 8 72.9013 16.292M72.9013 16.292C64.6094 24.5839 64.6094 37.9133 64.6094 64.6004C64.6094 91.2875 64.6094 104.617 72.9013 112.909M163.66 64.6004C163.66 68.3533 162.169 71.9524 159.516 74.606C156.862 77.2597 153.263 78.7505 149.51 78.7505C145.757 78.7505 142.158 77.2597 139.504 74.606C136.851 71.9524 135.36 68.3533 135.36 64.6004C135.36 60.8476 136.851 57.2484 139.504 54.5948C142.158 51.9411 145.757 50.4503 149.51 50.4503C153.263 50.4503 156.862 51.9411 159.516 54.5948C162.169 57.2484 163.66 60.8476 163.66 64.6004Z" stroke="black" stroke-width="15"/>
<path d="M234.404 50.4503C223.146 50.4503 212.349 45.9779 204.388 38.0169C196.427 30.0559 191.954 19.2585 191.954 8M234.404 78.7505C223.146 78.7505 212.349 83.2229 204.388 91.1839C196.427 99.1449 191.954 109.942 191.954 121.201M64.6032 50.4503C75.8617 50.4503 86.6592 45.9779 94.6201 38.0169C102.581 30.0559 107.054 19.2585 107.054 8M64.6032 78.7505C75.8617 78.7505 86.6592 83.2229 94.6201 91.1839C102.581 99.1449 107.054 109.942 107.054 121.201M50.4531 254.042H82.4324C96.724 254.042 111.2 255.542 125.109 258.4C149.943 263.502 175.494 264.068 200.529 260.07C212.811 258.089 224.867 255.047 235.791 249.783C245.64 245.014 257.71 238.321 265.818 230.808C273.912 223.308 282.345 211.04 288.316 201.446C293.467 193.211 290.977 183.122 282.854 176.995C278.29 173.675 272.792 171.886 267.148 171.886C261.504 171.886 256.005 173.675 251.441 176.995L225.872 196.31C215.967 203.809 205.142 210.7 192.251 212.752C190.695 212.993 189.068 213.219 187.37 213.417M187.37 213.417C186.851 213.477 186.332 213.534 185.813 213.587M187.37 213.417C189.634 212.805 191.711 211.637 193.412 210.021C195.544 208.176 197.285 205.923 198.532 203.395C199.78 200.866 200.508 198.114 200.674 195.299C200.84 192.485 200.441 189.665 199.5 187.007C198.559 184.35 197.095 181.907 195.195 179.825C193.351 177.778 191.203 176.026 188.827 174.632C149.249 151.015 87.6537 169 50.4531 195.39M187.37 213.417C186.858 213.528 186.336 213.585 185.813 213.587M185.813 213.587C177.279 214.444 168.682 214.463 160.145 213.643" stroke="black" stroke-width="15" stroke-linecap="round"/>
<path d="M50.4503 184.877C50.4503 173.155 40.9475 163.652 29.2252 163.652C17.5028 163.652 8 173.155 8 184.877V255.628C8 267.35 17.5028 276.853 29.2252 276.853C40.9475 276.853 50.4503 267.35 50.4503 255.628V184.877Z" stroke="black" stroke-width="15"/>
</svg>
