<svg width="277" height="222" viewBox="0 0 277 222" fill="none" xmlns="http://www.w3.org/2000/svg">
<path d="M243.845 41.4787C242.792 37.3516 239.801 34.2355 236.38 33.2799C230.314 31.5764 200.829 27.6986 138.507 27.6986C76.1851 27.6986 46.7137 31.5764 40.6062 33.2799C37.2269 34.2216 34.2355 37.3377 33.1691 41.4787C31.6595 47.3508 27.7125 71.9472 27.7125 110.794C27.7125 149.628 31.6595 174.224 33.1691 180.124C34.2216 184.237 37.2131 187.353 40.62 188.295C46.7137 190.013 76.1712 193.89 138.493 193.89C200.815 193.89 230.3 190.013 236.394 188.309C239.773 187.367 242.765 184.251 243.831 180.11C245.354 174.238 249.288 149.573 249.288 110.794C249.288 72.0164 245.354 47.3646 243.845 41.4787ZM270.671 34.5956C277 59.275 277 110.794 277 110.794C277 110.794 277 162.314 270.671 186.993C267.153 200.635 256.863 211.368 243.831 214.997C220.162 221.589 138.493 221.589 138.493 221.589C138.493 221.589 56.8791 221.589 33.1691 214.997C20.0815 211.313 9.80531 200.593 6.32913 186.993C4.12742e-07 162.314 0 110.794 0 110.794C0 110.794 4.12742e-07 59.275 6.32913 34.5956C9.84686 20.954 20.1369 10.2208 33.1691 6.59227C56.893 -2.47645e-06 138.507 0 138.507 0C138.507 0 220.162 -2.47645e-06 243.831 6.59227C256.905 10.2762 267.195 20.9956 270.671 34.5956ZM110.808 159.267V62.3219L193.904 110.794L110.808 159.267Z" fill="white"/>
</svg>
