<svg xmlns:mydata="http://www.w3.org/2000/svg" mydata:contrastcolor="ffffff" mydata:template="Contrast" mydata:presentation="2.5" mydata:layouttype="undefined" mydata:specialfontid="undefined" mydata:id1="000" mydata:id2="000" mydata:companyname="Crystal Clear Ibiza" mydata:companytagline="" version="1.1" xmlns="http://www.w3.org/2000/svg" xmlns:xlink="http://www.w3.org/1999/xlink" viewBox="0 0 550 470"><g fill="none" fill-rule="none" stroke="none" stroke-width="1" stroke-linecap="butt" stroke-linejoin="miter" stroke-miterlimit="10" stroke-dasharray="" stroke-dashoffset="0" font-family="none" font-weight="none" font-size="none" text-anchor="none" style="mix-blend-mode: normal"><g data-paper-data="{&quot;isGlobalGroup&quot;:true,&quot;bounds&quot;:{&quot;x&quot;:145.9997889098585,&quot;y&quot;:106,&quot;width&quot;:258.00042218028307,&quot;height&quot;:258}}"><g data-paper-data="{&quot;fillRule&quot;:&quot;evenodd&quot;,&quot;fillRuleOriginal&quot;:&quot;nonzero&quot;,&quot;isIcon&quot;:true,&quot;iconStyle&quot;:&quot;standalone&quot;,&quot;selectedEffects&quot;:{&quot;container&quot;:&quot;icon_bf09e965-1b5e-41c8-bd86-d7f1663b9606&quot;,&quot;transformation&quot;:&quot;&quot;,&quot;pattern&quot;:&quot;&quot;},&quot;bounds&quot;:{&quot;x&quot;:199.82615706548157,&quot;y&quot;:194.55864705946522,&quot;width&quot;:150.37767800208357,&quot;height&quot;:106.95233835513329},&quot;widthRatioIconToContainer&quot;:0.2718441247031312,&quot;heightRatioIconToContainer&quot;:0.6398791526929827,&quot;relativeBoundsIconToContainer&quot;:{&quot;top&quot;:-0.09684293828129695,&quot;left&quot;:-0.03313747149698043},&quot;iconType&quot;:&quot;initial&quot;,&quot;initialText&quot;:&quot;C&quot;,&quot;rawInitialId&quot;:797,&quot;monogramSpecial&quot;:&quot;wreath-icon-container&quot;,&quot;suitableAsStandaloneIcon&quot;:true}" fill="#303440" fill-rule="evenodd"><path d="M272.14978,291.16599c0,0 -2.43191,-0.36286 -4.84772,-0.6952c-1.19986,-0.16526 -2.41762,-0.34301 -3.34259,-0.45264c-0.86046,-0.24963 -1.46754,-0.41489 -1.46754,-0.41489c-0.61249,-9.16746 -3.64966,-13.50511 -6.36548,-16.11491c-1.49611,-1.13866 -5.66322,-3.11086 -5.66322,-3.11086c0,0.41218 -0.00466,0.84091 -0.00932,1.28317v0.00211c-0.02707,2.53462 -0.0591,5.51645 0.74212,8.42279c1.06167,3.09838 3.08409,6.76608 7.56173,8.58189c-0.17233,0.45083 -13.25894,-4.52622 -13.06315,-4.95194c0.90693,-4.51719 0.88362,-7.9694 0.44181,-10.63665c-0.30722,-2.85041 -1.07234,-4.87825 -2.01882,-6.31165c-1.03821,-1.44588 -4.14726,-4.39509 -4.14726,-4.39509c-0.9161,2.54153 -2.15356,5.69916 -2.37461,9.25183c-0.17774,1.86258 0.24617,3.43252 0.95384,5.21419c0.78301,1.70092 1.82844,3.68034 3.74666,5.13329c-0.06286,0.07188 -3.00124,-1.91461 -5.85902,-3.98726c-1.52663,-0.97174 -2.78574,-2.22003 -3.73403,-3.13432c-0.96287,-0.96272 -1.59145,-1.56257 -1.59145,-1.56257c4.15809,-7.83662 5.60758,-13.21247 3.04981,-20.13825c-0.52798,-0.90527 -1.074,-1.3758 -1.074,-1.3758c-0.06286,0.06887 -0.12692,0.13895 -0.19173,0.20993c-3.4056,3.72906 -9.28476,10.16657 -4.47103,18.57749c0,0 -2.08544,-2.78935 -4.14907,-5.56443c-1.02031,-1.40452 -1.63461,-3.06229 -2.25777,-4.17238c-0.60001,-1.16753 -0.99325,-1.94168 -0.99325,-1.94168c6.62954,-5.84638 9.3398,-9.96131 9.92356,-13.59849c0.66271,-3.55448 -0.31429,-6.46969 -0.31429,-6.46969c-0.2767,0.17038 -0.56437,0.34496 -0.86076,0.52467c-4.69795,2.84996 -11.54298,7.00263 -10.25725,16.0519c0,0 -0.2982,-0.81369 -0.66647,-2.04574c-0.3394,-1.23219 -0.77234,-2.9277 -1.12257,-4.64667c-0.67535,-3.41447 -0.95369,-6.91511 -0.95369,-6.91511c8.52264,-3.2635 11.9281,-7.28323 13.62,-10.62944c1.58784,-3.33733 1.38483,-6.27932 1.38483,-6.27932c-5.28412,1.42438 -13.77263,3.38395 -15.21324,13.08119c0,0 -0.10767,-3.47553 0.17609,-6.97616c0.21549,-3.50425 0.87836,-6.91871 0.87836,-6.91871c9.1422,-0.91956 13.42059,-3.79884 15.90108,-6.13736c1.1352,-1.26272 2.93853,-4.68065 2.93853,-4.68065c-2.71943,-0.50301 -6.04759,-0.96287 -9.401,-0.20662c-3.31748,0.7364 -6.67616,2.84334 -8.62325,7.28338c0,0 0.1006,-0.60903 0.38076,-1.49987c0.27309,-0.85129 0.63414,-1.98649 0.99505,-3.12169c0.82271,-2.28108 1.7334,-4.46336 1.7334,-4.46336c1.84994,-0.62512 4.41298,-1.88228 6.4948,-4.13644c2.22349,-2.28288 3.2653,-5.66142 5.28773,-12.41487c0,-0.02707 0.01444,-0.05037 0.02872,-0.05037h-0.02872v-0.06286l-0.05383,0.06286c-7.5473,-0.69505 -12.2496,3.63899 -13.88767,7.12353c-1.83746,3.68199 -0.93038,7.01571 -0.38437,8.64475c0,0 -1.02031,2.33852 -1.81235,4.73103c-0.38617,1.21234 -0.76512,2.44634 -1.06332,3.36229c-0.18316,0.9376 -0.36106,1.5555 -0.36106,1.5555c0.5173,-5.09028 -0.22271,-9.11363 -1.45302,-12.95367c-1.14773,-3.79703 -2.84866,-7.32474 -3.55455,-10.72297c0,0 -0.92141,1.00768 -2.11046,2.75702c-0.92321,1.78544 -2.35472,4.33599 -2.74448,7.29947c-1.1603,5.93811 0.89267,13.10645 9.1225,17.1477c0,0 -0.71301,3.65688 -0.95369,7.40368c-0.27481,3.73779 -0.12933,7.46293 -0.12933,7.46293c-1.65244,-9.95243 -8.09157,-14.77865 -12.16162,-20.25856c0,0 -2.02245,4.64652 -1.18904,10.23965c0.72025,5.58969 4.50291,11.85095 13.51589,13.6021c0,0 0.31612,3.74501 1.02921,7.4109c0.7382,3.6838 1.98468,7.25632 1.98468,7.25632c-4.39871,-9.19077 -11.77722,-12.23336 -17.18897,-16.31777c0,0 -0.70947,4.86396 1.56443,10.15349c2.23081,5.16036 7.63357,11.03365 17.10817,9.44401c0,0 0.43113,0.85144 1.07234,2.0907c0.70046,1.24482 1.30754,3.04454 2.49116,4.54426c2.24514,3.02109 4.4778,6.0333 4.4778,6.0333c-7.34804,-6.84879 -15.30126,-7.26188 -22.21099,-9.69198c0,0 0.34665,1.24828 1.19443,3.08936c0.82262,1.86077 2.20744,4.33223 4.14547,6.60262c4.45439,4.12741 11.20966,7.23301 19.46464,2.51447c0,0 0.68798,0.67535 1.70272,1.67942c0.98437,1.02558 2.4086,2.34574 4.03418,3.3659c1.54468,1.11009 3.13778,2.19491 4.27478,3.03552c1.01475,0.72031 1.81761,1.07415 2.00799,1.16753c-2.44454,-0.77956 -4.42561,-1.67581 -6.57916,-1.86258c-1.44393,-0.25775 -2.948,-0.22887 -4.35073,-0.20196h-0.00316l-0.01519,0.0003c-0.61475,0.01173 -1.21009,0.02316 -1.7719,0.00948c-3.87779,0.04481 -7.63361,0.82798 -11.11621,0.9358c0,0 0.74001,1.02377 2.10679,2.43912c1.43866,1.35611 3.32831,3.44139 6.06202,4.4975c2.69056,1.16032 5.85541,1.90754 9.09017,1.50874c3.33177,-0.57114 6.74984,-2.30438 9.84101,-5.61645c-0.17429,0.41489 11.15936,4.68065 13.51413,5.19254c-2.42123,-0.14722 -4.4975,-0.14722 -6.46608,0.07549c-2.06017,0.27835 -4.0414,0.86934 -5.90217,1.61656c-3.63177,1.32363 -6.85932,3.08394 -10.03319,4.31418c0,0 0.97354,0.74362 2.6098,1.70107c1.66318,0.9573 4.04666,2.02769 6.87195,2.28634c5.55916,0.92693 12.52269,-1.06678 16.82078,-9.08837c0,0 0.62512,0.13835 1.53941,0.40768c0.92136,0.0988 2.17687,0.30542 3.42876,0.47068c2.51822,0.35384 5.01118,0.70407 5.01118,0.70407v-0.03594c0.03594,0 0.08271,0.03594 0.0988,0.03594c0.70948,0 1.32739,-0.57294 1.32739,-1.31475c0.0018,-0.69881 -0.5191,-1.24828 -1.19265,-1.31475zM277.83812,291.16599c0,0 2.42664,-0.36286 4.86396,-0.6952c1.17475,-0.16526 2.42123,-0.34301 3.32831,-0.45264c0.88182,-0.24963 1.47641,-0.41489 1.47641,-0.41489c0.62497,-9.16746 3.64425,-13.50511 6.38879,-16.11491c1.45851,-1.13866 5.62728,-3.11086 5.62728,-3.11086c0,0.42692 0.00526,0.87159 0.01068,1.33069c0.02932,2.52469 0.06391,5.48833 -0.73084,8.37738c-1.05445,3.09838 -3.09297,6.76608 -7.53662,8.58189c0.14181,0.45083 13.22676,-4.52622 13.02195,-4.95194c-0.90708,-4.51719 -0.86031,-7.9694 -0.40587,-10.63665c0.30346,-2.85041 1.04167,-4.87825 2.02062,-6.31165c1.01475,-1.44588 4.12922,-4.39509 4.12922,-4.39509c0.90708,2.54153 2.14829,5.69916 2.36379,9.25183c0.17594,1.86258 -0.26046,3.43237 -0.95384,5.21419c-0.78482,1.70092 -1.79972,3.68034 -3.74666,5.13329c0.08256,0.07188 3.00846,-1.91461 5.8715,-3.98741c1.51596,-0.97159 2.8056,-2.22003 3.73959,-3.13417c0.95204,-0.96272 1.5734,-1.56272 1.5734,-1.56272c-4.14365,-7.83647 -5.60563,-13.21232 -3.04981,-20.1381c0.54422,-0.90527 1.07595,-1.37596 1.07595,-1.37596c0.06466,0.07083 0.13023,0.14271 0.1967,0.21564c3.4047,3.72982 9.27905,10.16522 4.47133,18.57193c0,0 2.071,-2.78935 4.14019,-5.56443c1.03986,-1.40452 1.62904,-3.06229 2.25416,-4.17238c0.60888,-1.16753 1.00227,-1.94168 1.00227,-1.94168c-6.62428,-5.84638 -9.34175,-9.96131 -9.94161,-13.59849c-0.63595,-3.55448 0.32151,-6.46969 0.32151,-6.46969c0.28061,0.17278 0.57309,0.34993 0.8743,0.53249c4.70336,2.8498 11.55771,7.00293 10.28326,16.04408c0,0 0.25865,-0.81369 0.62677,-2.04574c0.38978,-1.23219 0.78497,-2.9277 1.15671,-4.64667c0.65745,-3.41447 0.92678,-6.91511 0.92678,-6.91511c-8.51362,-3.2635 -11.92449,-7.28323 -13.59308,-10.62944c-1.60032,-3.33733 -1.42257,-6.27932 -1.42257,-6.27932c5.30938,1.42438 13.78541,3.38395 15.24558,13.08119c0,0 0.0809,-3.47553 -0.18677,-6.97616c-0.2209,-3.50425 -0.86753,-6.91871 -0.86753,-6.91871c-9.13152,-0.91956 -13.4027,-3.79884 -15.92453,-6.13736c-1.11174,-1.26272 -2.90439,-4.68065 -2.90439,-4.68065c2.69432,-0.50301 6.00984,-0.96287 9.39198,-0.20662c3.30681,0.7364 6.6942,2.84334 8.59813,7.28338c0,0 -0.09339,-0.60903 -0.36993,-1.49987c-0.2785,-0.85129 -0.63775,-1.98649 -0.98979,-3.12169c-0.83881,-2.28108 -1.73325,-4.46336 -1.73325,-4.46336c-1.86799,-0.62512 -4.41494,-1.88228 -6.48217,-4.13644c-2.22003,-2.28288 -3.26004,-5.66142 -5.30938,-12.41487c0,-0.02707 -0.02331,-0.05037 -0.04135,-0.05037h0.04135v-0.06286l0.06286,0.06286c7.56173,-0.69505 12.23878,3.63899 13.89308,7.12353c1.82303,3.68199 0.91595,7.01571 0.36106,8.64475c0,0 1.03625,2.33852 1.83205,4.73103c0.38978,1.21234 0.75429,2.44634 1.05069,3.36229c0.21008,0.9376 0.36286,1.5555 0.36286,1.5555c-0.52091,-5.09028 0.23519,-9.11363 1.45656,-12.95367c1.17475,-3.79703 2.86304,-7.32474 3.56184,-10.72297c0,0 0.91595,1.00768 2.10318,2.75702c0.93219,1.78544 2.34213,4.33599 2.73191,7.29947c1.16392,5.93811 -0.8764,13.10645 -9.08115,17.1477c0,0 0.68422,3.65688 0.93219,7.40368c0.28015,3.73779 0.13459,7.46293 0.13459,7.46293c1.631,-9.95243 8.08625,-14.77865 12.16163,-20.25856c0,0 1.99085,4.64652 1.18543,10.23965c-0.7382,5.58969 -4.50291,11.85095 -13.56435,13.6021c0,0 -0.26752,3.74501 -0.99866,7.4109c-0.7382,3.6838 -1.96318,7.25632 -1.96318,7.25632c4.36817,-9.19077 11.75396,-12.23336 17.20875,-16.31777c0,0 0.70632,4.86396 -1.60032,10.15349c-2.23085,5.16036 -7.6712,11.03365 -17.13327,9.44401c0,0 -0.42031,0.85144 -1.04543,2.0907c-0.69144,1.24482 -1.31656,3.04454 -2.51281,4.54426c-2.21461,3.02109 -4.45434,6.0333 -4.45434,6.0333c7.35511,-6.84879 15.30122,-7.26188 22.19663,-9.69198c0,0 -0.33053,1.24828 -1.17475,3.08936c-0.83881,1.86077 -2.22183,4.33223 -4.16155,6.60262c-4.45268,4.12741 -11.20794,7.23301 -19.4593,2.51447c0,0 -0.70061,0.67535 -1.72618,1.67942c-0.98061,1.02558 -2.40319,2.34574 -4.02335,3.3659c-1.53385,1.11009 -3.11267,2.19491 -4.27478,3.03552c-1.01656,0.72031 -1.7925,1.07415 -1.9937,1.16753c2.44093,-0.77956 4.41494,-1.67581 6.58834,-1.86258c1.43535,-0.25744 2.9259,-0.22903 4.33554,-0.20211c0.62587,0.01203 1.2358,0.02376 1.81792,0.00993c3.85267,0.04481 7.61737,0.82798 11.09109,0.9358c0,0 -0.7382,1.02377 -2.09251,2.43912c-1.44588,1.35611 -3.32816,3.44139 -6.07089,4.4975c-2.68875,1.16032 -5.84638,1.90754 -9.08115,1.50874c-3.33192,-0.57114 -6.75706,-2.30438 -9.85364,-5.61645c0.19579,0.41489 -11.15575,4.68065 -13.51593,5.19254c2.41401,-0.14722 4.51554,-0.14722 6.493,0.07549c2.05115,0.27835 4.03599,0.86934 5.86623,1.61656c3.64079,1.32363 6.88819,3.08394 10.05108,4.31418c0,0 -0.9555,0.74362 -2.61867,1.70107c-1.6525,0.9573 -4.04486,2.02769 -6.85045,2.28634c-5.56262,0.92693 -12.53352,-1.06678 -16.8477,-9.08837c0,0 -0.58196,0.13835 -1.49806,0.40768c-0.94828,0.0988 -2.20739,0.30542 -3.45748,0.47068c-2.51281,0.35384 -5.01133,0.70407 -5.01133,0.70407v-0.03594c-0.02511,0 -0.04842,0.03594 -0.097,0.03594c-0.7382,0 -1.32904,-0.57294 -1.32904,-1.31475c-0.01083,-0.69881 0.53339,-1.24828 1.18002,-1.31475zM288.4241,207.05441c0.46121,-0.75565 0.76076,-1.95446 0.89821,-3.59538h1.14919v22.68309h-1.14858c-0.86407,-5.91931 -2.47401,-10.4562 -4.83013,-13.61007c-2.35612,-3.15267 -5.02637,-4.72968 -8.01046,-4.72968c-2.49356,0 -4.78111,1.1752 -6.86188,3.52335c-2.08138,2.3492 -3.6035,5.42171 -4.56516,9.21799c-1.06257,4.17433 -1.66573,8.75513 -1.81536,13.73699c-0.0785,-0.06933 -0.15805,-0.13685 -0.23594,-0.20662l-0.50166,-0.44452c-0.17263,-0.15188 -0.34512,-0.30301 -0.52407,-0.4791l-0.76016,-0.72091c-0.15008,-0.1403 -0.29218,-0.28857 -0.43474,-0.4364c-0.09008,-0.09354 -0.18,-0.18707 -0.2794,-0.28692c-0.3376,-0.33068 -0.65505,-0.69144 -0.99159,-1.07415l-0.3567,-0.40166c-0.95234,-1.14813 -1.73852,-2.25747 -2.40574,-3.39403c-0.73896,-1.24798 -1.32182,-2.56169 -1.75416,-3.92907c0.18752,-0.59745 0.38091,-1.1937 0.59099,-1.78408c1.99251,-5.59901 4.68291,-9.94191 8.0694,-13.03112c3.3865,-3.08861 6.98413,-4.63313 10.7938,-4.63313c2.80755,0 5.77209,0.9973 8.89408,2.99222c1.80618,1.15836 2.95417,1.73731 3.44545,1.73731c0.62798,0 1.1728,-0.37805 1.63461,-1.13415zM288.07026,268.12755c-0.00572,0.4797 -0.01564,0.957 -0.02827,1.43144c-0.01729,-0.07789 -0.03339,-0.15459 -0.05022,-0.23309c0.04271,0.3573 0.08256,0.71505 0.11324,1.07295c-0.57264,-1.44754 -1.15971,-2.83582 -1.8292,-4.08666c-0.66437,-1.25475 -1.39926,-2.37175 -2.19521,-3.32004c-0.79535,-0.95129 -1.65881,-1.71957 -2.56213,-2.35446c-0.90798,-0.62677 -1.85987,-1.11866 -2.84394,-1.51866c-1.97296,-0.79069 -4.06591,-1.24212 -6.213,-1.69641c-2.14844,-0.44903 -4.35689,-0.8952 -6.58082,-1.57686c-2.22168,-0.68061 -4.46411,-1.58739 -6.62744,-2.90965c-2.14499,-1.30633 -4.31058,-3.03326 -6.12653,-5.55224c-0.90678,-1.25475 -1.71716,-2.72274 -2.33371,-4.37404c-0.30933,-0.82317 -0.56151,-1.69822 -0.7573,-2.59221c-0.19384,-0.8964 -0.32091,-1.81882 -0.39414,-2.73717c-0.0606,-0.92302 -0.06692,-1.84122 -0.01037,-2.74063c0.06226,-0.89866 0.16963,-1.77716 0.3394,-2.61988c0.16271,-0.84452 0.38091,-1.6537 0.63655,-2.42258c0.26391,-0.76362 0.55594,-1.50017 0.92016,-2.14724c-0.56632,3.23297 -0.54542,6.52473 0.12286,9.2792c0.16572,0.68753 0.36542,1.34558 0.61129,1.95912c0.24076,0.6164 0.51144,1.19821 0.81625,1.74137c0.60723,1.08858 1.33219,2.0289 2.12694,2.85958c0.79429,0.83174 1.66814,1.53761 2.57552,2.16965c0.45835,0.30768 0.91896,0.61068 1.39565,0.87911c0.23324,0.1397 0.48151,0.26903 0.72106,0.40632c0.24407,0.12647 0.48587,0.26151 0.73234,0.38046c1.95972,0.99445 3.99268,1.74017 6.08037,2.38725c2.08769,0.64993 4.23268,1.1937 6.42081,1.87416c2.18364,0.68632 4.42952,1.50317 6.6154,2.89417c1.08919,0.70076 2.15882,1.551 3.14515,2.60258c0.98647,1.05234 1.87882,2.31236 2.62228,3.71673c0.08376,0.16105 0.1588,0.33008 0.23895,0.49459c-0.08948,-0.23263 -0.17895,-0.46467 -0.2782,-0.68677l-0.50271,-1.08934c-0.17835,-0.34918 -0.36361,-0.68738 -0.54196,-1.02904c-0.04572,-0.08436 -0.08842,-0.17203 -0.13624,-0.25339l-0.14902,-0.23895l-0.29489,-0.47564c-0.18933,-0.32392 -0.40466,-0.61414 -0.61189,-0.91084c-0.10436,-0.14722 -0.20542,-0.2979 -0.31158,-0.44166l-0.33369,-0.40978l-0.33068,-0.40857c-0.11083,-0.13398 -0.23203,-0.25519 -0.34587,-0.38512c-0.23369,-0.25218 -0.45369,-0.52001 -0.70301,-0.74573l-0.36301,-0.35203c-0.12,-0.11774 -0.24015,-0.23609 -0.36888,-0.34061c-0.25504,-0.21294 -0.49986,-0.44091 -0.75445,-0.65219c-1.02152,-0.84166 -2.10438,-1.57822 -3.21387,-2.27777c-1.11114,-0.69956 -2.25055,-1.3552 -3.41297,-2.01266c-2.31988,-1.3131 -4.70592,-2.64995 -7.05631,-4.26561c-0.29384,-0.19624 -0.58587,-0.41158 -0.87851,-0.62046c-0.29158,-0.21474 -0.58647,-0.41098 -0.87505,-0.64076l-0.86813,-0.67294c-0.28918,-0.22407 -0.57429,-0.46813 -0.86001,-0.70602c-0.57324,-0.46857 -1.13369,-0.98693 -1.69415,-1.49716c-0.2788,-0.25985 -0.55188,-0.53745 -0.82768,-0.80588c-0.27594,-0.26887 -0.55008,-0.5397 -0.81625,-0.83339l-0.80286,-0.86467c-0.26617,-0.29098 -0.52647,-0.6194 -0.78963,-0.92768c-0.53279,-0.60362 -1.02678,-1.30843 -1.53024,-1.97852c-0.97655,-1.4143 -1.89551,-2.95252 -2.67356,-4.6784l-0.28407,-0.65685c-0.09293,-0.22046 -0.19038,-0.43339 -0.27068,-0.66948l-0.25053,-0.69264c-0.08015,-0.23384 -0.17188,-0.45369 -0.24,-0.69956l-0.21715,-0.72106c-0.07037,-0.2412 -0.14767,-0.47549 -0.20376,-0.72843c-0.06165,-0.24812 -0.1206,-0.49745 -0.17774,-0.74692l-0.08647,-0.37279l-0.06993,-0.38392c-0.38617,-2.03235 -0.53159,-4.17599 -0.37173,-6.23781l0.06752,-0.76888c0.02887,-0.25459 0.06526,-0.50617 0.0982,-0.7579l0.05128,-0.37564l0.06526,-0.37068c0.04511,-0.24647 0.08481,-0.49294 0.1391,-0.73354c0.20557,-0.96693 0.46587,-1.89385 0.7758,-2.77011c0.30647,-0.87851 0.66557,-1.70393 1.06212,-2.47386c0.40286,-0.76256 0.83279,-1.48799 1.32633,-2.09927c-0.31053,0.83234 -0.56617,1.68889 -0.78677,2.55521c-0.22211,0.86407 -0.3976,1.74438 -0.53384,2.62349c-0.12872,0.88257 -0.23083,1.75927 -0.27008,2.63552c-0.01339,0.2182 -0.01098,0.43805 -0.0203,0.6546l-0.00978,0.32437l0.00346,0.32496c0.00346,0.21639 0.00286,0.43053 0.00917,0.64467l0.03639,0.63895c0.21759,3.40034 1.24452,6.42548 2.73537,8.9422c0.74242,1.26452 1.58618,2.42243 2.48439,3.5053c0.46753,0.52016 0.91595,1.05926 1.40889,1.54167c0.24421,0.24542 0.47564,0.50106 0.72843,0.73775l0.75565,0.71625c0.24812,0.24542 0.50963,0.46407 0.76588,0.69324c0.25805,0.22632 0.51144,0.46061 0.77234,0.68001c0.52813,0.42542 1.04136,0.88257 1.58047,1.28422c1.05971,0.84332 2.15356,1.61911 3.25883,2.38108c2.21476,1.51806 4.50862,2.91432 6.8318,4.45824c1.16017,0.76768 2.32905,1.5925 3.48575,2.50514c1.15445,0.91836 2.30423,1.91927 3.39688,3.1065c0.27248,0.2985 0.54091,0.61189 0.80693,0.92302c0.13459,0.15113 0.26376,0.3197 0.39188,0.48827l0.38557,0.50271c0.2609,0.32392 0.4994,0.69956 0.74407,1.0552c0.1206,0.18241 0.24647,0.35324 0.3597,0.54722l0.3388,0.58181l0.33594,0.58061c0.10677,0.2015 0.20827,0.40978 0.31158,0.61414c0.20496,0.41279 0.4185,0.80978 0.59053,1.2561l0.27068,0.65038l0.13398,0.32451c0.04271,0.11023 0.08015,0.22557 0.12,0.3376c0.15474,0.45369 0.31925,0.8964 0.46121,1.35415c0.55986,1.84243 0.91836,3.77147 1.13249,5.69465c0.04557,0.48437 0.09459,0.96392 0.13504,1.44363l0.06241,1.44708c0.00752,0.24015 0.01835,0.4791 0.02241,0.71866zM283.18133,264.65563c0.21128,-0.18241 0.42481,-0.38677 0.63835,-0.59564c0.59745,0.77925 1.16603,1.66694 1.6919,2.66154c0.02015,0.03804 0.03865,0.0785 0.0588,0.11654c-0.91023,0.98182 -1.83431,1.80949 -2.77236,2.47567c-2.42484,1.72062 -5.2572,2.58183 -8.49648,2.58183c-4.26035,0 -8.04505,-1.39972 -11.35305,-4.19869c-3.30861,-2.79943 -5.86097,-6.82142 -7.65722,-12.06584c-0.6967,-2.03355 -1.2543,-4.1196 -1.68077,-6.25526c1.43144,1.63295 3.14109,3.05116 5.19014,4.29915c1.96198,1.19941 4.14667,2.16393 6.66909,2.94891c0.85204,2.93733 1.95731,5.29299 3.3253,7.04308c1.92378,2.46123 4.41734,3.69177 7.48008,3.69177c2.51311,0 4.81509,-0.90046 6.90623,-2.70304zM289.79328,260.98807c-0.39143,0.66948 -0.78677,1.2952 -1.18392,1.90017c-0.19098,-1.43671 -0.45474,-2.79943 -0.79129,-4.07162c0.64933,-1.0546 1.30739,-2.20438 1.97521,-3.47538z" data-paper-data="{&quot;isPathIcon&quot;:true}" fill="#61c2ca"></path></g><g data-paper-data="{&quot;isMirroredPrimaryText&quot;:true}" fill="#61c2ca" fill-rule="nonzero"><path d="M173.2905,265.7368l0.01616,1.69352c-1.39181,0.00981 -2.54381,-0.32781 -3.456,-1.01286c-0.91219,-0.68505 -1.53248,-1.65245 -1.86085,-2.90221c-0.33985,-1.29342 -0.35292,-2.41454 -0.03921,-3.36335c0.3137,-0.94881 0.91435,-1.7659 1.80193,-2.45127c0.88759,-0.68537 1.90441,-1.17862 3.05048,-1.47975c1.24976,-0.32838 2.40263,-0.37604 3.4586,-0.143c1.05597,0.23304 1.94124,0.7268 2.65581,1.48127c0.71457,0.75448 1.21095,1.66109 1.48913,2.71984c0.31547,1.20064 0.27513,2.29058 -0.12101,3.2698c-0.39614,0.97922 -1.10585,1.77538 -2.12911,2.38846l-0.77921,-1.46677c0.80006,-0.50776 1.32975,-1.07867 1.58905,-1.71272c0.2593,-0.63405 0.28356,-1.3522 0.07277,-2.15445c-0.24234,-0.92231 -0.66591,-1.63511 -1.27072,-2.13838c-0.60481,-0.50327 -1.31267,-0.78256 -2.12357,-0.83787c-0.81091,-0.05531 -1.61203,0.021 -2.40336,0.22892c-1.02055,0.26815 -1.8724,0.65096 -2.55557,1.14843c-0.68317,0.49747 -1.13058,1.10948 -1.34224,1.83603c-0.21166,0.72655 -0.22142,1.45548 -0.02927,2.18678c0.23373,0.88957 0.68812,1.5753 1.36316,2.05721c0.67504,0.4819 1.54605,0.69936 2.61304,0.65238z" data-paper-data="{&quot;glyphName&quot;:&quot;C&quot;,&quot;glyphIndex&quot;:0,&quot;firstGlyphOfWord&quot;:true,&quot;word&quot;:1}" fill="#303440"></path><path d="M172.39837,276.49667l11.26073,-5.21177l2.31081,4.99282c0.46453,1.00368 0.71654,1.8135 0.75601,2.42944c0.03947,0.61594 -0.12455,1.1986 -0.49206,1.74798c-0.36751,0.54938 -0.86108,0.96746 -1.4807,1.25423c-0.79885,0.36973 -1.59193,0.42279 -2.37924,0.15918c-0.78731,-0.26361 -1.50525,-0.9013 -2.15384,-1.91306c-0.00698,0.482 -0.05524,0.86807 -0.14479,1.15823c-0.19797,0.62014 -0.50646,1.26345 -0.92548,1.92993l-2.15827,3.3772l-0.86744,-1.87423l1.6531,-2.57447c0.4745,-0.74812 0.8258,-1.34595 1.0539,-1.79351c0.22811,-0.44755 0.3623,-0.81589 0.40259,-1.105c0.04029,-0.28912 0.03527,-0.56193 -0.01506,-0.81844c-0.04237,-0.18558 -0.15243,-0.4704 -0.33018,-0.85446l-0.7999,-1.72828l-5.0005,2.31437zM179.37901,275.07522l1.48247,3.20309c0.31522,0.68107 0.63212,1.18105 0.95069,1.49994c0.31858,0.31889 0.67899,0.50649 1.08123,0.56282c0.40224,0.05632 0.78515,0.00035 1.14873,-0.16793c0.53257,-0.24649 0.88093,-0.64244 1.04509,-1.18786c0.16416,-0.54542 0.05307,-1.23548 -0.33325,-2.07017l-1.64956,-3.56411z" data-paper-data="{&quot;glyphName&quot;:&quot;R&quot;,&quot;glyphIndex&quot;:1,&quot;word&quot;:1}" fill="#303440"></path><path d="M182.78405,295.94171l4.36043,-2.93499l3.26296,-7.96088l1.11539,1.6571l-1.73768,4.11824c-0.32839,0.76519 -0.67411,1.50463 -1.03716,2.21833c0.74628,-0.05339 1.60454,-0.08694 2.5748,-0.10063l4.36857,-0.04286l1.06813,1.58689l-8.69812,-0.11399l-4.36043,2.93499z" data-paper-data="{&quot;glyphName&quot;:&quot;Y&quot;,&quot;glyphIndex&quot;:2,&quot;word&quot;:1}" fill="#303440"></path><path d="M193.97302,304.40785l1.16005,1.03527c-0.40178,0.47877 -0.6557,0.95206 -0.76175,1.41987c-0.10605,0.46781 -0.05512,0.99129 0.15279,1.57045c0.20791,0.57916 0.55354,1.12558 1.03688,1.63928c0.42921,0.45616 0.87596,0.79509 1.34025,1.0168c0.46429,0.22171 0.89482,0.30667 1.29159,0.25487c0.39677,-0.05179 0.73488,-0.20916 1.01433,-0.4721c0.28356,-0.26681 0.45382,-0.58197 0.51079,-0.94549c0.05697,-0.36352 -0.0205,-0.80199 -0.23241,-1.3154c-0.13362,-0.3314 -0.49132,-1.00593 -1.07309,-2.0236c-0.58177,-1.01767 -0.94091,-1.77607 -1.0774,-2.27522c-0.17998,-0.64417 -0.20208,-1.22965 -0.06629,-1.75644c0.13579,-0.52678 0.41122,-0.98545 0.82628,-1.37599c0.45616,-0.42921 1.00433,-0.70094 1.64451,-0.81518c0.64018,-0.11424 1.29694,-0.0194 1.9703,0.28451c0.67336,0.30392 1.29617,0.75998 1.86845,1.36819c0.63028,0.66986 1.07825,1.36211 1.34391,2.07675c0.26566,0.71464 0.31844,1.40684 0.15834,2.07659c-0.1601,0.66975 -0.49555,1.2643 -1.00635,1.78366l-1.16513,-1.06536c0.51323,-0.59912 0.74849,-1.21369 0.70579,-1.84371c-0.0427,-0.63002 -0.39079,-1.29228 -1.04427,-1.98679c-0.68055,-0.72328 -1.30899,-1.12563 -1.88533,-1.20704c-0.57634,-0.08141 -1.05149,0.05382 -1.42546,0.40569c-0.32465,0.30547 -0.48157,0.67394 -0.47075,1.10538c0.00695,0.42734 0.35774,1.2304 1.05237,2.40918c0.69463,1.17878 1.12989,2.02632 1.30578,2.54263c0.25248,0.75416 0.3107,1.43155 0.17466,2.03218c-0.13604,0.60062 -0.44653,1.12908 -0.93145,1.58535c-0.48082,0.45241 -1.06343,0.74105 -1.74784,0.86592c-0.68441,0.12487 -1.38741,0.0406 -2.10898,-0.25281c-0.72158,-0.29341 -1.38591,-0.76271 -1.99299,-1.40791c-0.76949,-0.8178 -1.29509,-1.6152 -1.57682,-2.39221c-0.28173,-0.77701 -0.33111,-1.54794 -0.14816,-2.3128c0.18295,-0.76486 0.56875,-1.43971 1.15739,-2.02456z" data-paper-data="{&quot;glyphName&quot;:&quot;S&quot;,&quot;glyphIndex&quot;:3,&quot;word&quot;:1}" fill="#303440"></path><path d="M206.79628,322.01852l6.68726,-8.66329l-3.23617,-2.49803l0.89474,-1.15913l7.78557,6.00974l-0.89474,1.15913l-3.24957,-2.50837l-6.68726,8.66329z" data-paper-data="{&quot;glyphName&quot;:&quot;T&quot;,&quot;glyphIndex&quot;:4,&quot;word&quot;:1}" fill="#303440"></path><path d="M215.80672,328.50665l10.23578,-8.47957l1.54189,0.86712l-1.65577,13.30472l-1.63042,-0.9169l0.58055,-3.98506l-4.5224,-2.54326l-3.02988,2.60763zM221.42502,325.82038l3.66661,2.06199l0.55569,-3.63004c0.16741,-1.1035 0.33208,-1.99492 0.494,-2.67424c-0.52771,0.61604 -1.10921,1.19535 -1.74451,1.73793z" data-paper-data="{&quot;glyphName&quot;:&quot;A&quot;,&quot;glyphIndex&quot;:5,&quot;word&quot;:1}" fill="#303440"></path><path d="M232.88819,337.35635l4.319,-11.6324l1.53935,0.57155l-3.80932,10.25968l5.72892,2.12709l-0.50968,1.37272z" data-paper-data="{&quot;glyphName&quot;:&quot;L&quot;,&quot;glyphIndex&quot;:6,&quot;lastGlyphOfWord&quot;:true,&quot;word&quot;:1}" fill="#303440"></path><path d="M267.41853,340.98179l1.58829,0.58787c-0.48638,1.30409 -1.21204,2.26039 -2.17697,2.8689c-0.96494,0.60851 -2.0898,0.84371 -3.37457,0.70559c-1.32966,-0.14294 -2.38196,-0.52989 -3.15691,-1.16086c-0.77494,-0.63097 -1.32463,-1.48317 -1.64906,-2.55661c-0.32443,-1.07344 -0.42332,-2.19925 -0.29667,-3.37744c0.13811,-1.28478 0.50404,-2.37907 1.09778,-3.28287c0.59374,-0.9038 1.37034,-1.55526 2.32979,-1.95437c0.95945,-0.39912 1.98339,-0.54017 3.0718,-0.42317c1.23429,0.13269 2.23843,0.55844 3.01244,1.27728c0.77401,0.71883 1.2653,1.66549 1.47388,2.83999l-1.64809,0.20591c-0.18963,-0.92842 -0.53454,-1.62666 -1.03472,-2.09472c-0.50018,-0.46806 -1.16263,-0.74642 -1.98736,-0.83508c-0.94816,-0.10193 -1.76505,0.0401 -2.45068,0.42609c-0.68563,0.38599 -1.19865,0.94802 -1.53905,1.68609c-0.3404,0.73807 -0.55433,1.51387 -0.64178,2.32737c-0.11278,1.04914 -0.05836,1.98147 0.16327,2.79699c0.22163,0.81552 0.63424,1.45152 1.23782,1.90799c0.60358,0.45648 1.28127,0.72512 2.03306,0.80594c0.91449,0.09831 1.71707,-0.08215 2.40774,-0.54137c0.69067,-0.45922 1.204,-1.19574 1.53999,-2.20953z" data-paper-data="{&quot;glyphName&quot;:&quot;C&quot;,&quot;glyphIndex&quot;:7,&quot;firstGlyphOfWord&quot;:true,&quot;word&quot;:2}" fill="#303440"></path><path d="M276.95492,345.65322l-0.64889,-12.39135l1.63978,-0.08587l0.57231,10.92907l6.1027,-0.31957l0.07657,1.46228z" data-paper-data="{&quot;glyphName&quot;:&quot;L&quot;,&quot;glyphIndex&quot;:8,&quot;word&quot;:2}" fill="#303440"></path><path d="M292.99586,344.20396l-2.52333,-12.14905l8.78444,-1.82451l0.29777,1.43369l-7.17672,1.49059l0.77283,3.72096l6.72093,-1.39592l0.29605,1.4254l-6.72093,1.39592l0.8589,4.13532l7.45849,-1.54911l0.29777,1.43369z" data-paper-data="{&quot;glyphName&quot;:&quot;E&quot;,&quot;glyphIndex&quot;:9,&quot;word&quot;:2}" fill="#303440"></path><path d="M309.11,340.29009l0.00906,-13.29189l1.65183,-0.63307l9.1827,9.76909l-1.74667,0.66942l-2.6964,-2.99118l-4.84484,1.85681l0.07244,3.99683zM310.62968,334.25089l3.92804,-1.50544l-2.43903,-2.74537c-0.74241,-0.83341 -1.32335,-1.52929 -1.7428,-2.08764c0.1372,0.79947 0.21179,1.6169 0.22376,2.45227z" data-paper-data="{&quot;glyphName&quot;:&quot;A&quot;,&quot;glyphIndex&quot;:10,&quot;word&quot;:2}" fill="#303440"></path><path d="M326.99623,332.69701l-6.36748,-10.64996l4.72202,-2.82324c0.94925,-0.56754 1.72806,-0.90334 2.33643,-1.00739c0.60837,-0.10405 1.20505,-0.00224 1.79005,0.30544c0.58499,0.30768 1.05267,0.75452 1.40304,1.34054c0.45172,0.75552 0.58792,1.53862 0.4086,2.34929c-0.17932,0.81067 -0.73794,1.59172 -1.67586,2.34314c0.48006,-0.04377 0.86907,-0.03639 1.16703,0.02214c0.63752,0.13163 1.30971,0.37074 2.01658,0.71731l3.58552,1.79101l-1.77257,1.0598l-2.73409,-1.37309c-0.79389,-0.39316 -1.42536,-0.67962 -1.89442,-0.85938c-0.46906,-0.17976 -0.84947,-0.27446 -1.14122,-0.28411c-0.29175,-0.00965 -0.56252,0.02404 -0.81231,0.10107c-0.18009,0.06165 -0.45175,0.20107 -0.81499,0.41824l-1.63454,0.97727l2.82758,4.72928zM324.84829,325.90464l3.02936,-1.81121c0.64413,-0.38512 1.108,-0.75286 1.3916,-1.10321c0.2836,-0.35036 0.43225,-0.7285 0.44595,-1.13444c0.0137,-0.40594 -0.08225,-0.78083 -0.28784,-1.12469c-0.30115,-0.50368 -0.73155,-0.80846 -1.29121,-0.91432c-0.55966,-0.10587 -1.2342,0.07719 -2.02363,0.54918l-3.37079,2.01536z" data-paper-data="{&quot;glyphName&quot;:&quot;R&quot;,&quot;glyphIndex&quot;:11,&quot;lastGlyphOfWord&quot;:true,&quot;word&quot;:2}" fill="#303440"></path><path d="M351.15394,315.30904l-8.60227,-8.94246l1.18338,-1.13836l8.60227,8.94246z" data-paper-data="{&quot;glyphName&quot;:&quot;I&quot;,&quot;glyphIndex&quot;:12,&quot;firstGlyphOfWord&quot;:true,&quot;word&quot;:3}" fill="#303440"></path><path d="M358.55937,307.56952l-9.7011,-7.73662l2.90255,-3.63957c0.59107,-0.74115 1.16331,-1.25733 1.71672,-1.54854c0.55342,-0.29121 1.13531,-0.40094 1.74568,-0.32917c0.61037,0.07177 1.13834,0.28533 1.58391,0.64067c0.41469,0.33071 0.7154,0.75458 0.90213,1.27158c0.18673,0.51701 0.2114,1.09242 0.07402,1.72625c0.63998,-0.44953 1.29309,-0.66665 1.95933,-0.65137c0.66624,0.01529 1.28171,0.2481 1.84639,0.69843c0.45439,0.36238 0.80028,0.7952 1.03767,1.29847c0.23738,0.50327 0.34937,0.98051 0.33596,1.43173c-0.01341,0.45122 -0.13583,0.93278 -0.36726,1.4447c-0.23143,0.51192 -0.59342,1.07669 -1.08597,1.69431zM353.95839,301.79999l1.67293,-2.09771c0.45385,-0.5691 0.74179,-1.00707 0.86382,-1.31393c0.16329,-0.40386 0.19841,-0.77822 0.10536,-1.12309c-0.09306,-0.34487 -0.30943,-0.65275 -0.64912,-0.92366c-0.32205,-0.25683 -0.66706,-0.40568 -1.03504,-0.44653c-0.36798,-0.04086 -0.71153,0.04603 -1.03066,0.26066c-0.31912,0.21463 -0.75663,0.67046 -1.31251,1.36749l-1.54627,1.9389zM358.43837,305.37276l1.92624,-2.41535c0.33071,-0.41469 0.54748,-0.71817 0.65029,-0.91044c0.18278,-0.3378 0.29157,-0.65521 0.32637,-0.95224c0.0348,-0.29703 -0.0148,-0.60363 -0.14879,-0.91979c-0.13399,-0.31616 -0.35539,-0.59738 -0.6642,-0.84366c-0.36175,-0.2885 -0.74996,-0.44653 -1.16463,-0.47409c-0.41467,-0.02757 -0.8071,0.07988 -1.17729,0.32235c-0.37019,0.24247 -0.80157,0.67251 -1.29412,1.29014l-1.78903,2.2433z" data-paper-data="{&quot;glyphName&quot;:&quot;B&quot;,&quot;glyphIndex&quot;:13,&quot;word&quot;:3}" fill="#303440"></path><path d="M369.29167,292.9691l-10.61717,-6.42201l0.84984,-1.405l10.61717,6.42201z" data-paper-data="{&quot;glyphName&quot;:&quot;I&quot;,&quot;glyphIndex&quot;:14,&quot;word&quot;:3}" fill="#303440"></path><path d="M374.02289,284.44158l-1.39209,-0.61907l-4.67915,-9.03758c-0.33216,-0.64176 -0.60646,-1.23308 -0.82291,-1.77397l-2.81333,6.32626l-1.33795,-0.595l3.61125,-8.1205l1.33795,0.595l5.03476,9.86267l0.49049,1.04256l3.21917,-7.23885l1.33795,0.595z" data-paper-data="{&quot;glyphName&quot;:&quot;Z&quot;,&quot;glyphIndex&quot;:15,&quot;word&quot;:3}" fill="#303440"></path><path d="M380.29951,269.05691l-10.76604,-7.7953l0.45481,-1.70952l13.29689,-1.7175l-0.48093,1.80768l-4.00384,0.43249l-1.33397,5.01406l3.28136,2.28311zM376.29593,264.28693l1.08154,-4.06523l-3.65384,0.36796c-1.11036,0.11332 -2.01466,0.17636 -2.7129,0.18913c0.72826,0.35724 1.43437,0.77574 2.11836,1.2555z" data-paper-data="{&quot;glyphName&quot;:&quot;A&quot;,&quot;glyphIndex&quot;:16,&quot;lastGlyphOfWord&quot;:true,&quot;word&quot;:3}" fill="#303440"></path></g><g data-paper-data="{&quot;isContainerElementsWrapper&quot;:true}" fill="#61c2ca" fill-rule="evenodd"><path d="M224.77969,116.14781c-15.43633,6.52892 -29.10189,15.74078 -40.99666,27.63557c-11.89479,11.89474 -21.10667,25.56028 -27.63564,40.99662c-6.76506,15.99438 -10.1476,32.73445 -10.1476,50.22022c0,17.48586 3.38251,34.22594 10.1476,50.22024c6.52892,15.43632 15.7408,29.10183 27.63564,40.99652c11.89464,11.89469 25.5602,21.10667 40.99666,27.63592c15.99407,6.76474 32.73424,10.1471 50.22053,10.1471c17.4853,0 34.22545,-3.38237 50.21975,-10.1471c15.43702,-6.52902 29.10229,-15.74099 40.99652,-27.63592c11.89516,-11.89469 21.10737,-25.5602 27.63662,-40.99652c6.76427,-15.99444 10.1464,-32.73452 10.1464,-50.22024h0.0007c0,-17.48572 -3.3826,-34.22579 -10.14781,-50.22022c-6.52902,-15.43628 -15.74099,-29.10183 -27.63592,-40.99662c-11.89469,-11.89479 -25.5602,-21.10665 -40.99652,-27.63557c-15.99407,-6.7652 -32.73398,-10.14781 -50.21975,-10.14781c-17.48596,0 -34.22613,3.3826 -50.22053,10.14781zM276.2949,136.9499l0.64875,-12.39134l1.64017,0.08591l-0.57276,10.92905l6.10262,0.31959l-0.07599,1.46222zM269.51468,133.15196l-1.67746,-0.23684c-0.11258,1.06206 -0.45807,1.8908 -1.03505,2.48636c-0.57726,0.59549 -1.32311,0.94245 -2.23763,1.04074c-0.75176,0.08085 -1.47109,-0.03764 -2.1579,-0.35541c-0.68679,-0.31776 -1.22514,-0.85154 -1.61505,-1.60133c-0.38988,-0.74979 -0.64122,-1.64925 -0.75401,-2.69837c-0.08746,-0.81354 -0.04334,-1.61702 0.13242,-2.41058c0.17577,-0.79356 0.55763,-1.45181 1.14552,-1.97468c0.58796,-0.52294 1.35597,-0.83535 2.30412,-0.93724c0.82473,-0.08866 1.53125,0.0425 2.11949,0.39354c0.5881,0.35111 1.0736,0.96004 1.45638,1.82699l1.56629,-0.55151c-0.45314,-1.1033 -1.13426,-1.92395 -2.04335,-2.4618c-0.90931,-0.53793 -1.98101,-0.7405 -3.21533,-0.60787c-1.08838,0.11701 -2.05897,0.47249 -2.91164,1.06643c-0.85273,0.59394 -1.47313,1.39552 -1.86118,2.40488c-0.38805,1.00936 -0.51309,2.15643 -0.37497,3.44119c0.12665,1.17816 0.46257,2.25726 1.00774,3.23721c0.54518,0.97995 1.26344,1.6959 2.15481,2.1477c0.89132,0.45183 2.00181,0.60627 3.33149,0.46334c1.28476,-0.13812 2.33416,-0.60702 3.14757,-1.4067c0.8134,-0.79968 1.31931,-1.88841 1.51774,-3.26606zM292.95272,126.00368l-2.52323,12.14908l9.06632,1.88299l0.29764,-1.43365l-7.45852,-1.54912l0.85914,-4.13533l6.72041,1.39594l0.29623,-1.42542l-6.72111,-1.39594l0.77329,-3.72096l7.17636,1.49065l0.29834,-1.43372zM304.59364,141.49453l8.89041,-9.8812l1.65143,0.63306l0.30186,13.40401l-1.74642,-0.66944l-0.00704,-4.02711l-4.84452,-1.85682l-2.61752,3.02147zM237.28087,144.47491l-4.31905,-11.6324l1.53934,-0.57156l3.80933,10.25968l5.72892,-2.12708l0.50971,1.37272zM309.76042,138.01787l3.92768,1.50542l0.02111,-3.67226c0.00422,-1.1161 0.03729,-2.02196 0.09851,-2.71764c-0.43203,0.68639 -0.92317,1.34429 -1.47271,1.97369zM326.88758,137.48508l-6.36718,10.64999l1.40938,0.8426l2.8272,-4.72926l1.63454,0.97728c0.36308,0.21714 0.61498,0.39045 0.7543,0.51992c0.18576,0.18358 0.34408,0.40614 0.47355,0.66775c0.12947,0.26154 0.22587,0.64143 0.2899,1.13975c0.06333,0.49824 0.11047,1.19013 0.13932,2.07551l0.08514,3.05834l1.77245,1.05981l-0.11962,-4.00614c-0.02955,-0.78673 -0.1365,-1.49206 -0.32226,-2.1159c-0.09007,-0.29018 -0.26738,-0.63637 -0.53335,-1.03849c1.10611,0.47052 2.05813,0.59288 2.85746,0.36716c0.79862,-0.2258 1.42415,-0.71644 1.87589,-1.47193c0.35041,-0.58599 0.5228,-1.20948 0.51717,-1.87047c-0.00633,-0.66092 -0.19913,-1.23474 -0.57839,-1.72137c-0.37996,-0.48663 -1.04419,-1.01373 -1.99339,-1.58128zM220.06393,139.34246l1.9288,13.1512l1.51971,-0.8547l-0.65431,-3.94352l4.5224,-2.54328l3.10366,2.56615l1.63039,-0.91691l-10.5087,-8.3261zM328.51649,144.83918l-3.02985,-1.81122l2.10668,-3.52338l3.37111,2.01535c0.78901,0.472 1.26936,0.97955 1.44104,1.52266c0.17169,0.54306 0.10695,1.0665 -0.1942,1.57016c-0.20546,0.34387 -0.49043,0.60583 -0.85421,0.78589c-0.36378,0.18013 -0.76766,0.22819 -1.21025,0.14417c-0.44282,-0.08401 -0.98626,-0.31856 -1.63032,-0.70363zM226.28237,144.23546l-3.66664,2.062l-0.59626,-3.84029c-0.13362,-0.82473 -0.32656,-1.62258 -0.57881,-2.39348c0.49634,0.49123 1.17251,1.09499 2.02851,1.81129zM214.50755,157.97187l-6.68719,-8.66328l-3.23622,2.49804l-0.89474,-1.15917l7.78557,-6.00974l0.89474,1.15917l-3.24952,2.50831l6.68727,8.66328zM342.40481,163.78642l8.60263,-8.94248l1.18351,1.13834l-8.60263,8.94248zM331.37606,178.62394c7.3647,7.36444 13.06367,15.81445 17.09689,25.35003c4.1702,9.8595 6.2553,20.20158 6.2553,31.02624c0,10.8247 -2.08534,21.16688 -6.25601,31.02652c-4.03276,9.53565 -9.73126,17.98558 -17.09549,25.34982c-7.36494,7.36494 -15.81487,13.06367 -25.35052,17.09619c-9.85979,4.17067 -20.2018,6.25601 -31.02603,6.25601c-10.82498,0 -21.16716,-2.08534 -31.02652,-6.25601c-9.53572,-4.03253 -17.98579,-9.73126 -25.3501,-17.09619c-7.36444,-7.36494 -13.06331,-15.81487 -17.09651,-25.34982c-4.17021,-9.85965 -6.25532,-20.20182 -6.25532,-31.02652l0,-0.00134c0.00017,-10.82414 2.08528,-21.1658 6.25532,-31.0249c4.03321,-9.53557 9.73205,-17.98558 17.09651,-25.35003c7.36447,-7.36447 15.8145,-13.06331 25.3501,-17.09654c9.85946,-4.1702 20.20163,-6.2553 31.02652,-6.2553c10.82423,0 21.16624,2.0851 31.02603,6.2553c9.53565,4.03323 17.98558,9.73208 25.34982,17.09654zM198.32003,167.55607l-0.9628,1.22088c0.61957,0.55193 1.31664,0.89601 2.09121,1.03209c0.77457,0.13608 1.54107,0.0399 2.2995,-0.28856c0.75843,-0.32846 1.52236,-0.90157 2.29185,-1.7194c0.6071,-0.64516 1.03512,-1.33683 1.28413,-2.07495c0.24895,-0.73804 0.29032,-1.44491 0.12405,-2.1204c-0.16625,-0.67558 -0.48978,-1.23957 -0.97059,-1.69196c-0.48494,-0.45631 -1.03132,-0.73403 -1.63909,-0.83331c-0.60778,-0.09928 -1.28038,0.00007 -2.01779,0.29792c-0.50466,0.20696 -1.32416,0.69296 -2.45851,1.458c-1.13435,0.76504 -1.91459,1.16402 -2.34072,1.19695c-0.42999,0.03708 -0.80731,-0.09717 -1.13197,-0.40262c-0.37397,-0.35189 -0.53785,-0.81797 -0.49164,-1.39819c0.04621,-0.58022 0.40959,-1.23192 1.09013,-1.95526c0.65348,-0.69449 1.29335,-1.08219 1.9196,-1.16318c0.62626,-0.08092 1.254,0.11652 1.88322,0.59239l0.99252,-1.22777c-0.54946,-0.47826 -1.16332,-0.77695 -1.84156,-0.89601c-0.67825,-0.11905 -1.36595,-0.02428 -2.06311,0.28434c-0.69716,0.30861 -1.36089,0.79792 -1.99117,1.46771c-0.57228,0.60822 -0.98962,1.25763 -1.25202,1.94822c-0.2624,0.69059 -0.31712,1.35192 -0.16415,1.98397c0.15297,0.63205 0.45753,1.16268 0.91369,1.5919c0.41506,0.39052 0.88963,0.63756 1.42369,0.74107c0.53407,0.1035 1.11712,0.04581 1.74915,-0.17302c0.48992,-0.16662 1.22508,-0.57121 2.20548,-1.21377c0.9804,-0.64261 1.63192,-1.04067 1.95458,-1.19421c0.49957,-0.24268 0.93252,-0.34668 1.29883,-0.31192c0.36631,0.03469 0.69126,0.18548 0.97483,0.4523c0.27941,0.26295 0.45708,0.59084 0.53286,0.98375c0.07585,0.39291 0.01724,0.82775 -0.17584,1.30468c-0.19301,0.47692 -0.50415,0.9435 -0.93337,1.39967c-0.48335,0.51365 -1.00775,0.89186 -1.57319,1.13461c-0.56544,0.24275 -1.08486,0.32543 -1.55825,0.24803c-0.47339,-0.0774 -0.96125,-0.30207 -1.46357,-0.67394zM358.39419,162.56287l-9.701,7.73666l2.94963,3.69907c0.49254,0.61765 0.96257,1.09619 1.41008,1.43576c0.44751,0.3395 0.8901,0.566 1.32705,0.67943c0.43696,0.1135 0.92739,0.11047 1.47059,-0.00894c0.54321,-0.11948 1.04208,-0.3604 1.49663,-0.72277c0.56502,-0.45033 0.9288,-0.9986 1.09204,-1.64474c0.16324,-0.64615 0.0964,-1.3312 -0.19913,-2.0551c0.58683,0.27491 1.15396,0.37891 1.69928,0.31185c0.54532,-0.06699 1.0259,-0.26583 1.44034,-0.59661c0.44563,-0.35534 0.77142,-0.82255 0.97735,-1.40164c0.20546,-0.57909 0.22798,-1.1708 0.06755,-1.77513c-0.16113,-0.60435 -0.53687,-1.2771 -1.12792,-2.01823zM357.01436,169.19525l-1.67324,-2.09774l2.93204,-2.33789l1.54588,1.93893c0.55587,0.69702 0.90276,1.22496 1.04138,1.58388c0.13791,0.35885 0.14636,0.71313 0.02463,1.06277c-0.12173,0.34971 -0.34337,0.65297 -0.66564,0.9098c-0.33986,0.2709 -0.68815,0.41331 -1.0449,0.42732c-0.35674,0.014 -0.71419,-0.1035 -1.07163,-0.35259c-0.2716,-0.18724 -0.63468,-0.56537 -1.08852,-1.13447zM352.78763,173.08564l-1.92585,-2.41536l3.33452,-2.65981l1.78934,2.24333c0.49254,0.6176 0.81575,1.13384 0.96961,1.5487c0.1541,0.41486 0.17169,0.82142 0.05277,1.21954c-0.11962,0.39812 -0.35956,0.74149 -0.72122,1.02998c-0.3089,0.24627 -0.63257,0.39952 -0.97031,0.45982c-0.33845,0.0603 -0.64805,0.04046 -0.9302,-0.0596c-0.28145,-0.09999 -0.56713,-0.27667 -0.85562,-0.53005c-0.16465,-0.14298 -0.41233,-0.42183 -0.74304,-0.83655zM193.2533,181.10559l-4.36043,-2.935l-8.6036,-0.02646l1.1154,-1.65713l4.46941,0.05981c0.83254,0.01618 1.6477,0.05812 2.44562,0.12588c-0.33043,-0.67134 -0.68457,-1.45385 -1.06242,-2.3476l-1.68408,-4.03112l1.06812,-1.58691l3.16843,8.10129l4.36043,2.935zM358.4934,183.56289l10.61713,-6.422l0.84999,1.40502l-10.61713,6.42199zM172.59039,193.59268l11.26074,5.21177l0.6897,-1.49016l-5.00051,-2.31436l0.79989,-1.72829c0.17774,-0.38406 0.32365,-0.65229 0.43773,-0.80469c0.16296,-0.20436 0.36772,-0.38475 0.6142,-0.54114c0.24646,-0.15639 0.61411,-0.29246 1.10295,-0.4082c0.48879,-0.11574 1.1719,-0.23482 2.04933,-0.35725l3.03245,-0.40586l0.86744,-1.87423l-3.97138,0.54024c-0.77925,0.11189 -1.46933,0.29304 -2.07023,0.54344c-0.27915,0.11951 -0.6047,0.33257 -0.97664,0.63918c0.35154,-1.14922 0.37307,-2.10924 0.06452,-2.88004c-0.30857,-0.7708 -0.86228,-1.34107 -1.66114,-1.71079c-0.61962,-0.28678 -1.25775,-0.39249 -1.91438,-0.31712c-0.6567,0.07537 -1.20701,0.3274 -1.65101,0.75611c-0.44406,0.42871 -0.89833,1.1449 -1.36287,2.14859zM363.88394,190.0678l-1.39249,0.61907l3.98679,8.96349l1.33761,-0.59499l-3.21912,-7.23885l1.10259,0.33406l10.69594,2.86717l1.33761,-0.59499l-3.61105,-8.1205l-1.33761,0.59499l2.81313,6.32626c-0.54672,-0.20156 -1.16944,-0.39392 -1.86885,-0.57711zM179.73235,191.19958l-1.48249,3.20308l-3.72539,-1.72422l1.64953,-3.5641c0.38634,-0.8347 0.84051,-1.36596 1.36252,-1.59379c0.52205,-0.22783 1.04935,-0.2185 1.58191,0.02799c0.36359,0.16827 0.65407,0.42396 0.87145,0.76706c0.21738,0.34311 0.30761,0.73928 0.27069,1.18851c-0.03692,0.44924 -0.21299,1.0144 -0.52822,1.69547zM177.8991,203.77681l-0.8184,1.48277c0.9523,0.48354 1.60393,1.10112 1.95491,1.8526c0.3509,0.75148 0.40951,1.57199 0.17584,2.46159c-0.19216,0.73129 -0.55897,1.36125 -1.10048,1.88989c-0.54147,0.52866 -1.23192,0.84171 -2.07136,0.93914c-0.83951,0.09738 -1.7695,0.01203 -2.79005,-0.25612c-0.79131,-0.20792 -1.52646,-0.53532 -2.20547,-0.98206c-0.67896,-0.44681 -1.15811,-1.03798 -1.43745,-1.77351c-0.27927,-0.73558 -0.29778,-1.56453 -0.05545,-2.48685c0.21081,-0.80228 0.58493,-1.41571 1.12244,-1.84042c0.53751,-0.42471 1.27942,-0.66149 2.22573,-0.71039l0.04243,-1.66036c-1.19245,0.03089 -2.20188,0.37539 -3.02816,1.03336c-0.82635,0.65804 -1.39725,1.58737 -1.71272,2.78801c-0.27822,1.05876 -0.29159,2.09226 -0.04018,3.10056c0.25141,1.00831 0.77963,1.87343 1.58465,2.59542c0.80503,0.72207 1.8324,1.24726 3.0822,1.57565c1.14608,0.30108 2.274,0.37138 3.38385,0.21088c1.10987,-0.16057 2.03458,-0.57689 2.77415,-1.24895c0.73959,-0.67204 1.27935,-1.65481 1.61913,-2.94823c0.32839,-1.24972 0.26379,-2.39707 -0.19385,-3.44204c-0.45764,-1.04497 -1.2949,-1.9053 -2.51176,-2.58093zM368.10363,204.18823l13.21635,1.4148l0.45525,1.70955l-10.68609,8.09798l-0.48058,-1.80771l3.25923,-2.36491l-1.33339,-5.01402l-3.98257,-0.35076zM373.94871,206.33811l1.08149,4.06524l2.98763,-2.13504c0.90698,-0.65009 1.66058,-1.15417 2.26007,-1.51218c-0.80918,0.05188 -1.62985,0.03959 -2.46201,-0.03687zM158.52356,284.21567c-6.46269,-15.2796 -9.77519,-31.25476 -9.93749,-47.92548h44.11529c0.1596,10.70593 2.30945,20.95304 6.44953,30.74134c4.16391,9.84478 10.04669,18.56772 17.64832,26.16884c7.60183,7.60206 16.32496,13.48491 26.16941,17.64854c10.18078,4.30624 20.85798,6.45936 32.03159,6.45936c11.173,0 21.84994,-2.15312 32.03082,-6.45865c9.84478,-4.1641 18.56796,-10.04719 26.16955,-17.64925c7.60159,-7.60112 13.48444,-16.32407 17.64854,-26.16884c4.13971,-9.78825 6.28955,-20.03536 6.44951,-30.74134h44.11503c-0.16254,16.67063 -3.47454,32.64608 -9.93742,47.92548c-6.39814,15.12742 -15.42647,28.51969 -27.08357,40.17749c-11.65734,11.65734 -25.04983,20.68496 -40.17749,27.08287c-15.67274,6.62964 -32.07773,9.94446 -49.21496,9.94446c-17.13714,0 -33.54229,-3.31482 -49.21546,-9.94446c-15.12728,-6.39791 -28.51973,-15.42553 -40.17735,-27.08287c-11.65748,-11.65734 -20.68543,-25.04983 -27.08385,-40.17749z" data-paper-data="{&quot;isBaseLogoContainer&quot;:true}" fill="#303440"></path></g></g></g></svg>